<svg xmlns="http://www.w3.org/2000/svg" viewBox="0 0 512 512">
  <defs>
    <linearGradient id="orange-surface" x1="8%" y1="5%" x2="92%" y2="95%">
      <stop offset="0" stop-color="#ff9c45"/>
      <stop offset="0.5" stop-color="#ff6a00"/>
      <stop offset="1" stop-color="#e04700"/>
    </linearGradient>
    <linearGradient id="glyph-surface" x1="0" y1="0" x2="0" y2="1">
      <stop offset="0" stop-color="#fff"/>
      <stop offset="0.55" stop-color="#fbfcfd"/>
      <stop offset="1" stop-color="#edf1f5"/>
    </linearGradient>
  </defs>
  <rect
    x="4"
    y="4"
    width="504"
    height="504"
    rx="120"
    fill="url(#orange-surface)"/>
  <rect
    x="8"
    y="8"
    width="496"
    height="496"
    rx="116"
    fill="none"
    stroke="#fff"
    stroke-opacity="0.1"
    stroke-width="4"/>
  <g transform="translate(0 4)" opacity="0.18">
    <path
      d="M138 106h236l-31 176c-9 50-45 84-87 84s-78-34-87-84L138 106Z"
      fill="none"
      stroke="#9c3600"
      stroke-width="30"
      stroke-linejoin="round"/>
    <path
      d="M256 366v58M188 424h136"
      fill="none"
      stroke="#9c3600"
      stroke-width="30"
      stroke-linecap="round"
      stroke-linejoin="round"/>
    <path
      d="M278 157 203 269h53l-22 93 83-125h-57l18-80Z"
      fill="#9c3600"
      transform="translate(0 -28)"/>
  </g>
  <g>
    <path
      d="M138 106h236l-31 176c-9 50-45 84-87 84s-78-34-87-84L138 106Z"
      fill="none"
      stroke="url(#glyph-surface)"
      stroke-width="30"
      stroke-linejoin="round"/>
    <path
      d="M256 366v58M188 424h136"
      fill="none"
      stroke="url(#glyph-surface)"
      stroke-width="30"
      stroke-linecap="round"
      stroke-linejoin="round"/>
    <path
      d="M278 157 203 269h53l-22 93 83-125h-57l18-80Z"
      fill="url(#glyph-surface)"
      transform="translate(0 -28)"/>
  </g>
</svg>
